<svg xmlns="http://www.w3.org/2000/svg" viewBox="0 0 32 40" x="0px" y="0px"><title>down_6</title><g data-name="down"><path d="M27.58,9.46a4,4,0,0,0-2.84-1.19h0a3.92,3.92,0,0,0-2.83,1.19l-5.91,6-5.91-6A3.92,3.92,0,0,0,7.26,8.27,4,4,0,0,0,4.42,9.46a4.1,4.1,0,0,0,0,5.72l8.49,8.64A4,4,0,0,0,15.73,25H16a4,4,0,0,0,3.09-1.17l8.49-8.64A4.1,4.1,0,0,0,27.58,9.46Zm-1.43,4.32-8.48,8.64a2,2,0,0,1-1.58.57h-.18a2,2,0,0,1-1.58-.57L5.85,13.78a2.08,2.08,0,0,1,0-2.91,2,2,0,0,1,2.82,0l6.62,6.74a1,1,0,0,0,1.42,0l6.62-6.74a2,2,0,0,1,2.82,0A2.08,2.08,0,0,1,26.15,13.78Z"/></g><text x="0" y="47" fill="#000000" font-size="5px" font-weight="bold" font-family="'Helvetica Neue', Helvetica, Arial-Unicode, Arial, Sans-serif">Created by Kawalan Icon</text><text x="0" y="52" fill="#000000" font-size="5px" font-weight="bold" font-family="'Helvetica Neue', Helvetica, Arial-Unicode, Arial, Sans-serif">from the Noun Project</text></svg>