<svg xmlns="http://www.w3.org/2000/svg" xmlns:xlink="http://www.w3.org/1999/xlink" version="1.1" x="0px" y="0px" viewBox="0 0 44.00082 55.573787499999995" enable-background="new 0 0 44.00082 44.45903" xml:space="preserve"><path d="M29.3304,1.86431c-1.46729-2.01953-4.30371-2.46777-6.32275-1.00195c-0.97803,0.70996-1.62109,1.75879-1.81055,2.95313  s0.09717,2.39063,0.80762,3.36914l10.92529,15.04492L22.00472,37.27349c-1.46631,2.02051-1.0166,4.85742,1.00293,6.32324  c0.80176,0.58203,1.73145,0.8623,2.65381,0.8623c1.40137,0,2.78467-0.64746,3.66943-1.86523l14.57471-20.07031  c0.12695-0.17578,0.12695-0.41211,0-0.58789L29.3304,1.86431z"/><path d="M22.76595,21.9356L8.19026,1.86431C6.72444-0.15424,3.8885-0.60444,1.86751,0.86236  c-0.97803,0.70996-1.6211,1.75879-1.81055,2.95313s0.09717,2.39063,0.80762,3.36914l10.92529,15.04492L0.86458,37.27349  c-1.46631,2.02051-1.0166,4.85742,1.00293,6.32324c0.80176,0.58203,1.73193,0.8623,2.6543,0.8623  c1.40137,0,2.78418-0.64746,3.66895-1.86523l14.5752-20.07031C22.8929,22.34771,22.8929,22.11138,22.76595,21.9356z"/><text x="0" y="59.45903" fill="#000000" font-size="5px" font-weight="bold" font-family="'Helvetica Neue', Helvetica, Arial-Unicode, Arial, Sans-serif">Created by Kieu Thi Kim Cuong</text><text x="0" y="64.45903" fill="#000000" font-size="5px" font-weight="bold" font-family="'Helvetica Neue', Helvetica, Arial-Unicode, Arial, Sans-serif">from the Noun Project</text></svg>