<svg xmlns="http://www.w3.org/2000/svg" xmlns:xlink="http://www.w3.org/1999/xlink" version="1.1" x="0px" y="0px" viewBox="0 0 44.00124 55.580912500000004" enable-background="new 0 0 44.00124 44.46473" xml:space="preserve"><path d="M11.07128,22.23232L21.9956,7.18739c0.71094-0.97852,0.99805-2.1748,0.80859-3.36914s-0.83252-2.24316-1.81104-2.95313  c-2.01904-1.46484-4.85498-1.01758-6.32275,1.00195L0.09521,21.93836c-0.12695,0.17578-0.12695,0.41211,0,0.58789l14.5752,20.07031  c0.71045,0.97852,1.75928,1.62207,2.95361,1.81152c0.24023,0.03809,0.48047,0.05664,0.71924,0.05664  c0.94727,0,1.86816-0.29785,2.6499-0.86523c0.97852-0.70996,1.62158-1.75879,1.81104-2.95313s-0.09766-2.3916-0.80811-3.37012  L11.07128,22.23232z"/><path d="M43.94433,3.81825c-0.19043-1.19434-0.83301-2.24316-1.81152-2.95313c-0.97754-0.71094-2.17188-0.99707-3.36914-0.80859  c-1.19434,0.18945-2.24317,0.833-2.95362,1.81054l-14.5752,20.07129c-0.12695,0.17578-0.12695,0.41211,0,0.58789l14.5752,20.07031  c0.71045,0.97852,1.75928,1.62207,2.95361,1.81152c0.24023,0.03809,0.48047,0.05664,0.71973,0.05664  c0.94727,0,1.86816-0.29785,2.64941-0.86523c0.97852-0.70996,1.62207-1.75879,1.81152-2.95313s-0.09766-2.3916-0.80859-3.37012  l-10.9248-15.04393l10.9248-15.04492C43.84667,6.20887,44.13378,5.01258,43.94433,3.81825z"/><text x="0" y="59.46473" fill="#000000" font-size="5px" font-weight="bold" font-family="'Helvetica Neue', Helvetica, Arial-Unicode, Arial, Sans-serif">Created by Kieu Thi Kim Cuong</text><text x="0" y="64.46473" fill="#000000" font-size="5px" font-weight="bold" font-family="'Helvetica Neue', Helvetica, Arial-Unicode, Arial, Sans-serif">from the Noun Project</text></svg>