<svg xmlns="http://www.w3.org/2000/svg" xmlns:xlink="http://www.w3.org/1999/xlink" version="1.1" x="0px" y="0px" viewBox="0 0 512 640" style="enable-background:new 0 0 512 512;" xml:space="preserve"><g><path d="M492.9,213.7L256.4,450.3L19.8,213.7c-1.6-1.6-4.1-1.6-5.7,0c-1.6,1.6-1.6,4.1,0,5.7l239.5,239.4c0.8,0.8,1.8,1.2,2.8,1.2   c1,0,2-0.4,2.8-1.2l239.4-239.4c1.6-1.6,1.6-4.1,0-5.7C497,212.2,494.5,212.2,492.9,213.7z"/><path d="M253.6,299c0.8,0.8,1.8,1.2,2.8,1.2c1,0,2-0.4,2.8-1.2L498.6,59.6c1.6-1.6,1.6-4.1,0-5.7s-4.1-1.6-5.7,0L256.4,290.5   L19.8,53.9c-1.6-1.6-4.1-1.6-5.7,0c-1.6,1.6-1.6,4.1,0,5.7L253.6,299z"/></g><text x="0" y="527" fill="#000000" font-size="5px" font-weight="bold" font-family="'Helvetica Neue', Helvetica, Arial-Unicode, Arial, Sans-serif">Created by ibrandify</text><text x="0" y="532" fill="#000000" font-size="5px" font-weight="bold" font-family="'Helvetica Neue', Helvetica, Arial-Unicode, Arial, Sans-serif">from the Noun Project</text></svg>